<!DOCTYPE svg PUBLIC "-//W3C//DTD SVG 1.1//EN" "http://www.w3.org/Graphics/SVG/1.1/DTD/svg11.dtd">
<svg width="243.8mm" height="52.18mm" viewBox="0 0 243.8 52.18" xmlns="http://www.w3.org/2000/svg" version="1.1" xmlns:xlink="http://www.w3.org/1999/xlink">
<title>Airfoil plot (clarky-il) CLARK Y AIRFOIL by AirfoilTools.com</title>
<g transform="translate(6.9,27.974118)"><g transform="scale(1,-1)"><line fill="none" stroke="green" stroke-width="0.12" x1="10" x2="10" y1="-13.86" y2="27.97"/><line fill="none" stroke="green" stroke-width="0.12" x1="20" x2="20" y1="-13.86" y2="27.97"/><line fill="none" stroke="green" stroke-width="0.12" x1="30" x2="30" y1="-13.86" y2="27.97"/><line fill="none" stroke="green" stroke-width="0.12" x1="40" x2="40" y1="-13.86" y2="27.97"/><line fill="none" stroke="green" stroke-width="0.12" x1="50" x2="50" y1="-13.86" y2="27.97"/><line fill="none" stroke="green" stroke-width="0.12" x1="60" x2="60" y1="-13.86" y2="27.97"/><line fill="none" stroke="green" stroke-width="0.12" x1="70" x2="70" y1="-13.86" y2="27.97"/><line fill="none" stroke="green" stroke-width="0.12" x1="80" x2="80" y1="-13.86" y2="27.97"/><line fill="none" stroke="green" stroke-width="0.12" x1="90" x2="90" y1="-13.86" y2="27.97"/><line fill="none" stroke="green" stroke-width="0.12" x1="100" x2="100" y1="-13.86" y2="27.97"/><line fill="none" stroke="green" stroke-width="0.12" x1="110" x2="110" y1="-13.86" y2="27.97"/><line fill="none" stroke="green" stroke-width="0.12" x1="120" x2="120" y1="-13.86" y2="27.97"/><line fill="none" stroke="green" stroke-width="0.12" x1="130" x2="130" y1="-13.86" y2="27.97"/><line fill="none" stroke="green" stroke-width="0.12" x1="140" x2="140" y1="-13.86" y2="27.97"/><line fill="none" stroke="green" stroke-width="0.12" x1="150" x2="150" y1="-13.86" y2="27.97"/><line fill="none" stroke="green" stroke-width="0.12" x1="160" x2="160" y1="-13.86" y2="27.97"/><line fill="none" stroke="green" stroke-width="0.12" x1="170" x2="170" y1="-13.86" y2="27.97"/><line fill="none" stroke="green" stroke-width="0.12" x1="180" x2="180" y1="-13.86" y2="27.97"/><line fill="none" stroke="green" stroke-width="0.12" x1="190" x2="190" y1="-13.86" y2="27.97"/><line fill="none" stroke="green" stroke-width="0.12" x1="200" x2="200" y1="-13.86" y2="27.97"/><line fill="none" stroke="green" stroke-width="0.12" x1="210" x2="210" y1="-13.86" y2="27.97"/><line fill="none" stroke="green" stroke-width="0.12" x1="220" x2="220" y1="-13.86" y2="27.97"/><line fill="none" stroke="green" stroke-width="0.12" x1="230" x2="230" y1="-13.86" y2="27.97"/><line fill="none" stroke="green" stroke-width="0.12" x1="-6.9" x2="236.9" y1="10" y2="10"/><line fill="none" stroke="green" stroke-width="0.12" x1="-6.9" x2="236.9" y1="20" y2="20"/><line fill="none" stroke="green" stroke-width="0.12" x1="-6.9" x2="236.9" y1="-10" y2="-10"/>
<path fill="none" stroke="red" stroke-width="0.23" d="M 230 0.14 L 227.7 0.68 L 225.4 1.23 L 223.1 1.77 L 220.8 2.31 L 216.2 3.36 L 211.6 4.4 L 207 5.41 L 202.4 6.39 L 197.8 7.35 L 193.2 8.29 L 188.6 9.21 L 184 10.09 L 179.4 10.95 L 174.8 11.79 L 170.2 12.6 L 165.6 13.38 L 161 14.13 L 156.4 14.85 L 151.8 15.55 L 147.2 16.21 L 142.6 16.84 L 138 17.43 L 133.4 17.97 L 128.8 18.48 L 124.2 18.95 L 119.6 19.37 L 115 19.75 L 110.4 20.09 L 105.8 20.39 L 101.2 20.64 L 96.6 20.83 L 92 20.97 L 87.4 21.05 L 82.8 21.07 L 78.2 21.05 L 73.6 20.97 L 69 20.86 L 64.4 20.7 L 59.8 20.49 L 55.2 20.2 L 50.6 19.81 L 46 19.3 L 41.4 18.65 L 36.8 17.84 L 32.2 16.89 L 27.6 15.78 L 23 14.49 L 18.4 12.98 L 13.8 11.21 L 11.5 10.18 L 9.2 9 L 6.9 7.59 L 4.6 5.84 L 2.76 4.11 L 1.84 3.16 L 0.92 2.05 L 0.46 1.33 L 0.23 0.86 L 0.12 0.54 L 0 0 L 0.12 -1.07 L 0.23 -1.37 L 0.46 -1.8 L 0.92 -2.42 L 1.84 -3.29 L 2.76 -3.9 L 4.6 -4.66 L 6.9 -5.2 L 9.2 -5.64 L 11.5 -5.99 L 13.8 -6.24 L 18.4 -6.55 L 23 -6.76 L 27.6 -6.89 L 32.2 -6.96 L 36.8 -6.96 L 41.4 -6.91 L 46 -6.82 L 50.6 -6.7 L 55.2 -6.56 L 59.8 -6.4 L 64.4 -6.23 L 69 -6.05 L 73.6 -5.88 L 78.2 -5.71 L 82.8 -5.54 L 87.4 -5.37 L 92 -5.21 L 96.6 -5.04 L 101.2 -4.87 L 105.8 -4.7 L 110.4 -4.53 L 115 -4.36 L 119.6 -4.19 L 124.2 -4.02 L 128.8 -3.85 L 133.4 -3.69 L 138 -3.52 L 142.6 -3.35 L 147.2 -3.18 L 151.8 -3.01 L 156.4 -2.84 L 161 -2.67 L 165.6 -2.5 L 170.2 -2.33 L 174.8 -2.17 L 179.4 -2 L 184 -1.83 L 188.6 -1.66 L 193.2 -1.49 L 197.8 -1.32 L 202.4 -1.15 L 207 -0.98 L 211.6 -0.81 L 216.2 -0.64 L 220.8 -0.48 L 223.1 -0.39 L 225.4 -0.31 L 227.7 -0.22 L 230 -0.14 "/>
<path fill="none" stroke="blue" stroke-width="0.23" d="M 0 0 L 230 0 "/>
<line fill="none" stroke="black" stroke-width="0.23" x1="-6.9" x2="236.9" y1="0" y2="0"/>
<line fill="none" stroke="black" stroke-width="0.23" x1="0" x2="0" y1="-13.86" y2="27.97"/>
</g>
</g>
<g transform="translate(0,41.832676)"><g transform="scale(2.3,2.3)"><text fill="rgb(48,48,144)" font-size="1.8" style="font-family:Arial,Helvetica,sans-serif;" x="1" y="2">Name = CLARK Y AIRFOIL</text><text fill="rgb(48,48,144)" font-size="1.8" style="font-family:Arial,Helvetica,sans-serif;" x="1" y="4">Chord = 230mm  Radius = 0mm  Thickness = 100%  Origin = 0%  Pitch = 0° </text></g></g></svg>